<mxfile modified="2022-12-03T23:12:51.170Z" host="app.diagrams.net" agent="5.0 (Windows NT 10.0; Win64; x64) AppleWebKit/537.36 (KHTML, like Gecko) Chrome/108.0.0.0 Safari/537.36" etag="RGd28jkFbPzdA1x5Kc9_" version="20.6.0" type="github">
  <diagram id="Ht1M8jgEwFfnCIfOTk4-" name="Page-1">
    <mxGraphModel dx="1584" dy="637" grid="1" gridSize="10" guides="1" tooltips="1" connect="1" arrows="1" fold="1" page="1" pageScale="1" pageWidth="1169" pageHeight="827" math="0" shadow="0">
      <root>
        <mxCell id="0" />
        <mxCell id="1" parent="0" />
        <mxCell id="hBojzOyMF5LvLoNcRi0i-21" style="edgeStyle=orthogonalEdgeStyle;rounded=0;orthogonalLoop=1;jettySize=auto;html=1;entryX=0;entryY=0.75;entryDx=0;entryDy=0;fontFamily=Garamond;" edge="1" parent="1" source="hBojzOyMF5LvLoNcRi0i-4" target="hBojzOyMF5LvLoNcRi0i-1">
          <mxGeometry relative="1" as="geometry" />
        </mxCell>
        <mxCell id="hBojzOyMF5LvLoNcRi0i-4" value="" style="shape=image;verticalLabelPosition=bottom;labelBackgroundColor=default;verticalAlign=top;aspect=fixed;imageAspect=0;image=https://http2.mlstatic.com/D_NQ_NP_656868-MPE47234183113_082021-O.jpg;" vertex="1" parent="1">
          <mxGeometry x="200" y="380" width="172.19" height="204.5" as="geometry" />
        </mxCell>
        <mxCell id="hBojzOyMF5LvLoNcRi0i-20" style="edgeStyle=orthogonalEdgeStyle;rounded=0;orthogonalLoop=1;jettySize=auto;html=1;entryX=0;entryY=0.25;entryDx=0;entryDy=0;fontFamily=Garamond;" edge="1" parent="1" source="hBojzOyMF5LvLoNcRi0i-3" target="hBojzOyMF5LvLoNcRi0i-1">
          <mxGeometry relative="1" as="geometry" />
        </mxCell>
        <mxCell id="hBojzOyMF5LvLoNcRi0i-3" value="" style="shape=image;verticalLabelPosition=bottom;labelBackgroundColor=default;verticalAlign=top;aspect=fixed;imageAspect=0;image=https://www.mouser.pe/images/espressifsystems/lrg/ESP32-S2-DeVkitM-1_SPL.jpg;" vertex="1" parent="1">
          <mxGeometry x="230" y="116" width="166.83" height="250" as="geometry" />
        </mxCell>
        <mxCell id="hBojzOyMF5LvLoNcRi0i-6" value="Firestore" style="sketch=0;html=1;verticalAlign=top;labelPosition=center;verticalLabelPosition=bottom;align=center;spacingTop=-6;fontSize=11;fontStyle=1;fontColor=#999999;shape=image;aspect=fixed;imageAspect=0;image=data:image/svg+xml,PHN2ZyB4bWxucz0iaHR0cDovL3d3dy53My5vcmcvMjAwMC9zdmciIHhtbG5zOnY9Imh0dHBzOi8vdmVjdGEuaW8vbmFubyIgd2lkdGg9IjMyMy45MDU2MTAzOTg2NzUxNSIgaGVpZ2h0PSIzNzYuNDIyMjk0OTYzNjg0MDciIHZpZXdCb3g9Ii0wLjA5NzAwMDAwMjg2MTAyMjk1IDAuMjg3OTk5OTg3NjAyMjMzOSA4NS42OTk5OTY5NDgyNDIxOSA5OS41OTUwMDEyMjA3MDMxMiI+JiN4YTs8c3R5bGUgdHlwZT0idGV4dC9jc3MiPiYjeGE7CS5zdDB7ZmlsbDojYWVjYmZhO30mI3hhOwkuc3Qxe2ZpbGw6IzY2OWRmNjt9JiN4YTsJLnN0MntmaWxsOiM0Mjg1ZjQ7fSYjeGE7PC9zdHlsZT4mI3hhOwk8cGF0aCBjbGFzcz0ic3QwIiBkPSJNLS4wOTcgNzUuODE1VjU1Ljg3NGw0Mi44NS0yMC4xODN2MTkuMDd6bTAtMzUuNDAzVjIwLjQ3MUw0Mi43NTMuMjg4djE5LjA3eiIvPiYjeGE7CTxwYXRoIGNsYXNzPSJzdDEiIGQ9Ik04NS42MDMgNzUuODE1VjU1Ljg3NGwtNDIuODUtMjAuMTgzdjE5LjA3em0wLTM1LjQwM1YyMC40NzFMNDIuNzUzLjI4OHYxOS4wN3oiLz4mI3hhOwk8cGF0aCBjbGFzcz0ic3QyIiBkPSJNNDIuNzUzIDgwLjMxNGwxNi4yMTctNy41MjUgMjEuMDg0IDkuNzE3LTM3LjMwMSAxNy4zNzd6Ii8+JiN4YTs8L3N2Zz4=;" vertex="1" parent="1">
          <mxGeometry x="584" y="220" width="36" height="42" as="geometry" />
        </mxCell>
        <mxCell id="hBojzOyMF5LvLoNcRi0i-7" value="" style="shadow=0;dashed=0;html=1;labelPosition=center;verticalLabelPosition=bottom;verticalAlign=top;align=center;outlineConnect=0;shape=mxgraph.veeam.3d.datastore;" vertex="1" parent="1">
          <mxGeometry x="580" y="430" width="44" height="70" as="geometry" />
        </mxCell>
        <mxCell id="hBojzOyMF5LvLoNcRi0i-11" value="ASDSD" style="verticalLabelPosition=bottom;verticalAlign=top;html=1;shadow=0;dashed=0;strokeWidth=1;shape=mxgraph.android.phone2;strokeColor=#b85450;fillColor=#f8cecc;" vertex="1" parent="1">
          <mxGeometry x="830" y="200" width="200" height="390" as="geometry" />
        </mxCell>
        <mxCell id="hBojzOyMF5LvLoNcRi0i-16" value="" style="dashed=0;outlineConnect=0;html=1;align=center;labelPosition=center;verticalLabelPosition=bottom;verticalAlign=top;shape=mxgraph.weblogos.android;fillColor=#A4CA39;strokeColor=none;fontFamily=Garamond;" vertex="1" parent="1">
          <mxGeometry x="910" y="350" width="67.60000000000001" height="80" as="geometry" />
        </mxCell>
        <mxCell id="hBojzOyMF5LvLoNcRi0i-17" value="" style="dashed=0;outlineConnect=0;html=1;align=center;labelPosition=center;verticalLabelPosition=bottom;verticalAlign=top;shape=mxgraph.weblogos.github;fontFamily=Garamond;" vertex="1" parent="1">
          <mxGeometry x="547" y="70" width="75" height="75" as="geometry" />
        </mxCell>
        <mxCell id="hBojzOyMF5LvLoNcRi0i-18" style="edgeStyle=orthogonalEdgeStyle;rounded=0;orthogonalLoop=1;jettySize=auto;html=1;exitX=0.5;exitY=1;exitDx=0;exitDy=0;entryX=0;entryY=0.75;entryDx=0;entryDy=0;fontFamily=Garamond;" edge="1" parent="1" source="hBojzOyMF5LvLoNcRi0i-6" target="hBojzOyMF5LvLoNcRi0i-6">
          <mxGeometry relative="1" as="geometry" />
        </mxCell>
        <mxCell id="hBojzOyMF5LvLoNcRi0i-19" value="" style="shape=flexArrow;endArrow=classic;html=1;rounded=0;fontFamily=Garamond;entryX=0.007;entryY=0.405;entryDx=0;entryDy=0;entryPerimeter=0;startArrow=none;" edge="1" parent="1" target="hBojzOyMF5LvLoNcRi0i-11">
          <mxGeometry width="50" height="50" relative="1" as="geometry">
            <mxPoint x="660" y="350" as="sourcePoint" />
            <mxPoint x="650" y="310" as="targetPoint" />
          </mxGeometry>
        </mxCell>
        <mxCell id="hBojzOyMF5LvLoNcRi0i-1" value="" style="strokeColor=#dddddd;shadow=1;strokeWidth=1;rounded=1;absoluteArcSize=1;arcSize=2;" vertex="1" parent="1">
          <mxGeometry x="547" y="320" width="100" height="60" as="geometry" />
        </mxCell>
        <mxCell id="hBojzOyMF5LvLoNcRi0i-2" value="&lt;font color=&quot;#000000&quot;&gt;Name&lt;/font&gt;&lt;br&gt;Firebase" style="sketch=0;dashed=0;connectable=0;html=1;fillColor=#5184F3;strokeColor=none;shape=mxgraph.gcp2.firebase;part=1;labelPosition=right;verticalLabelPosition=middle;align=left;verticalAlign=middle;spacingLeft=5;fontColor=#999999;fontSize=12;" vertex="1" parent="hBojzOyMF5LvLoNcRi0i-1">
          <mxGeometry width="32.4" height="45" relative="1" as="geometry">
            <mxPoint x="5" y="7" as="offset" />
          </mxGeometry>
        </mxCell>
      </root>
    </mxGraphModel>
  </diagram>
</mxfile>
